<mxfile host="app.diagrams.net" modified="2023-10-17T12:06:39.257Z" agent="Mozilla/5.0 (X11; Linux x86_64) AppleWebKit/537.36 (KHTML, like Gecko) Chrome/113.0.0.0 Safari/537.36" version="22.0.4" etag="t4AZ5QWa37ylINrrC1Sp" type="github">
  <diagram name="Страница — 1" id="Arjd0ENhC2pIypYSEa-U">
    <mxGraphModel>
      <root>
        <mxCell id="0" />
        <mxCell id="1" parent="0" />
      </root>
    </mxGraphModel>
  </diagram>
</mxfile>
